{
    "asset" : {
        "generator" : "Khronos glTF Blender I/O v1.7.33",
        "version" : "2.0"
    },
    "extensionsUsed" : [
        "KHR_materials_transmission"
    ],
    "scene" : 0,
    "scenes" : [
        {
            "name" : "Scene",
            "nodes" : [
                0
            ]
        }
    ],
    "nodes" : [
        {
            "mesh" : 0,
            "name" : "Icosphere",
            "translation" : [
                0.00824594497680664,
                -0.03282451629638672,
                0.019638538360595703
            ]
        }
    ],
    "materials" : [
        {
            "doubleSided" : true,
            "extensions" : {
                "KHR_materials_transmission" : {
                    "transmissionFactor" : 1
                }
            },
            "name" : "RubyMaterial",
            "pbrMetallicRoughness" : {
                "baseColorFactor" : [
                    0.5,
                    0.0010708118788897991,
                    0,
                    1
                ],
                "metallicFactor" : 0,
                "roughnessFactor" : 0.2863636314868927
            }
        }
    ],
    "meshes" : [
        {
            "name" : "Icosphere",
            "primitives" : [
                {
                    "attributes" : {
                        "POSITION" : 0,
                        "NORMAL" : 1,
                        "TEXCOORD_0" : 2
                    },
                    "indices" : 3,
                    "material" : 0
                }
            ]
        }
    ],
    "accessors" : [
        {
            "bufferView" : 0,
            "componentType" : 5126,
            "count" : 31,
            "max" : [
                0.8944249749183655,
                1,
                0.8506399989128113
            ],
            "min" : [
                -0.7235999703407288,
                -1,
                -0.8506399989128113
            ],
            "type" : "VEC3"
        },
        {
            "bufferView" : 1,
            "componentType" : 5126,
            "count" : 31,
            "type" : "VEC3"
        },
        {
            "bufferView" : 2,
            "componentType" : 5126,
            "count" : 31,
            "type" : "VEC2"
        },
        {
            "bufferView" : 3,
            "componentType" : 5123,
            "count" : 60,
            "type" : "SCALAR"
        }
    ],
    "bufferViews" : [
        {
            "buffer" : 0,
            "byteLength" : 372,
            "byteOffset" : 0
        },
        {
            "buffer" : 0,
            "byteLength" : 372,
            "byteOffset" : 372
        },
        {
            "buffer" : 0,
            "byteLength" : 248,
            "byteOffset" : 744
        },
        {
            "buffer" : 0,
            "byteLength" : 120,
            "byteOffset" : 992
        }
    ],
    "buffers" : [
        {
            "byteLength" : 1112,
            "uri" : "data:application/octet-stream;base64,"
        }
    ]
}
